<svg width="18" height="18" viewBox="0 0 18 18" fill="none" xmlns="http://www.w3.org/2000/svg">
<g clip-path="url(#clip0_30_49754)">
<path fill-rule="evenodd" clip-rule="evenodd" d="M8.99917 0.478726C6.73384 0.478726 4.60285 1.35714 2.99494 2.95423C1.38009 4.55825 0.486443 6.69523 0.478774 8.97133C0.471202 11.2475 1.35039 13.3904 2.95439 15.0052C4.5584 16.6201 6.69525 17.5136 8.97132 17.5213C8.981 17.5213 8.99116 17.5213 9.00093 17.5213C11.2661 17.5213 13.3971 16.6429 15.0052 15.0458C16.62 13.4417 17.5135 11.3048 17.5212 9.02867C17.5289 6.75258 16.6497 4.60974 15.0457 2.99487C13.4417 1.38 11.3048 0.486444 9.02877 0.478726C9.019 0.478726 9.00894 0.478726 8.99917 0.478726ZM9.00103 18H8.96976C6.5658 17.9919 4.30888 17.0482 2.6147 15.3426C0.920614 13.6369 -0.00790908 11.3737 5.07554e-05 8.96976C0.0082111 6.56578 0.951975 4.30883 2.65759 2.61463C4.35578 0.927849 6.60684 0 8.99907 0C9.00943 0 9.01988 0 9.03024 0C11.4343 0.00810903 13.6911 0.951883 15.3853 2.65752C17.0795 4.36305 18.008 6.62635 17.9999 9.03034C17.9918 11.4343 17.0481 13.6912 15.3425 15.3854C13.6443 17.0722 11.3933 18 9.00103 18Z" fill="white"/>
<path fill-rule="evenodd" clip-rule="evenodd" d="M16.7944 6.83979C16.7035 6.51083 16.5917 6.18803 16.4596 5.87335C16.3443 5.87295 16.2271 5.86377 16.1098 5.86338C14.5728 5.85459 13.0706 6.32266 11.8105 7.20303C12.8647 7.40107 13.5588 8.41626 13.3607 9.47053C13.1628 10.5247 12.1476 11.2189 11.0933 11.0208C10.3708 10.885 9.78663 10.3529 9.58459 9.6459C9.33722 10.0794 9.13469 10.537 8.98013 11.0116C8.8286 10.5361 8.62949 10.0772 8.38583 9.6418C8.08395 10.6712 7.00467 11.2608 5.97543 10.9589C4.94618 10.6569 4.35637 9.57771 4.65836 8.54845C4.86519 7.84325 5.45225 7.31529 6.17541 7.18408C4.92439 6.29687 3.42941 5.81883 1.89585 5.81561C1.77871 5.81521 1.66235 5.81473 1.54609 5.82323C1.12218 6.81927 0.901966 7.89015 0.898443 8.97285C0.893271 13.4421 4.5121 17.0694 8.9814 17.0747C13.4506 17.0798 17.0779 13.461 17.0831 8.99161C17.084 8.26463 16.9869 7.54087 16.7944 6.83979Z" fill="white"/>
<path fill-rule="evenodd" clip-rule="evenodd" d="M5.38282 9.11859C5.38068 9.76605 5.90375 10.2927 6.5513 10.295C7.19874 10.2971 7.72543 9.77396 7.72759 9.12651C7.72973 8.47905 7.20665 7.95236 6.55911 7.9502C5.91167 7.94806 5.38498 8.47114 5.38282 9.11859Z" fill="white"/>
<path fill-rule="evenodd" clip-rule="evenodd" d="M11.4244 10.3096C12.0718 10.3118 12.5985 9.7887 12.6006 9.14125C12.6029 8.4937 12.0797 7.96701 11.4322 7.96485C10.7847 7.96271 10.258 8.48579 10.2559 9.13324C10.2537 9.78079 10.7768 10.3075 11.4244 10.3096Z" fill="white"/>
</g>
<defs>
<clipPath id="clip0_30_49754">
<rect width="18" height="18" fill="white"/>
</clipPath>
</defs>
</svg>
